<?xml version="1.0" encoding="UTF-8"?>
<svg version="1.1" xmlns="http://www.w3.org/2000/svg" width="150" height="150">
<path d="M0 0 C0.99 0.99 0.99 0.99 2 2 C1.78326764 6.87647804 0.31817713 9.48663598 -3 13 C-3.99 13.66 -4.98 14.32 -6 15 C-4.68 16.32 -3.36 17.64 -2 19 C-3.35155282 23.42326378 -5.19890438 25.40412982 -9 28 C-10.485 28.495 -10.485 28.495 -12 29 C-9.30197711 29.75758244 -9.30197711 29.75758244 -6 29 C-2.18402683 25.23143023 0.73189587 20.84751666 3 16 C5.31 16.33 7.62 16.66 10 17 C9.50628906 17.75925781 9.01257813 18.51851562 8.50390625 19.30078125 C7.86324219 20.29464844 7.22257812 21.28851562 6.5625 22.3125 C5.92441406 23.29863281 5.28632812 24.28476562 4.62890625 25.30078125 C2.89384394 27.95276993 2.89384394 27.95276993 2 31 C7.67756732 26.38957528 7.67756732 26.38957528 12 20.5625 C14 18 14 18 16.015625 17.62890625 C18.25 17.625 18.25 17.625 22 18 C22 18.66 22 19.32 22 20 C20.33333333 21.66666667 18.66666667 23.33333333 17 25 C15.56354621 26.95045643 14.2896367 28.94613415 13 31 C13.99 31 14.98 31 16 31 C17.62236178 29.37524588 17.62236178 29.37524588 19.0625 27.25 C19.56910156 26.55390625 20.07570313 25.8578125 20.59765625 25.140625 C21.90409608 23.14639372 22.98566985 21.15484491 24 19 C26.3431213 19.25561323 28.67843403 19.59270772 31 20 C31.33 20.66 31.66 21.32 32 22 C33.4540625 21.9690625 33.4540625 21.9690625 34.9375 21.9375 C38 22 38 22 39 23 C39.32893979 26.01699465 39.23796544 27.59418394 37.6875 30.23828125 C37.130625 30.92277344 36.57375 31.60726562 36 32.3125 C35.443125 33.00988281 34.88625 33.70726562 34.3125 34.42578125 C33.879375 34.94527344 33.44625 35.46476562 33 36 C34.98 35.34 36.96 34.68 39 34 C39.33 34.66 39.66 35.32 40 36 C33.60330579 42.75206612 33.60330579 42.75206612 28.375 43.25 C26 43 26 43 24 41 C23.84514796 34.6510664 28.11164847 30.56855924 32 26 C25.98243686 28.8884303 22.48991998 32.29667439 19 38 C18.67 38.99 18.34 39.98 18 41 C8.82713348 40.64989059 8.82713348 40.64989059 5.375 37.9375 C4.694375 36.9784375 4.694375 36.9784375 4 36 C3.01 36.99 3.01 36.99 2 38 C-2.05261287 38.34490322 -3.54754176 38.30163882 -7 36 C-7.33 36.33 -7.66 36.66 -8 37 C-10.75 37.4375 -10.75 37.4375 -14 37 C-16.05826312 35.17102526 -17.39090904 33.27165782 -19 31 C-19.99 33.97 -19.99 33.97 -21 37 C-31.375 37 -31.375 37 -36 36 C-36 35.34 -36 34.68 -36 34 C-36.556875 34.495 -37.11375 34.99 -37.6875 35.5 C-40.45122422 37.29268598 -41.76822531 37.58006212 -45 37 C-46.8125 35 -46.8125 35 -48 33 C-48.86625 33.825 -49.7325 34.65 -50.625 35.5 C-53.08271654 37.55003844 -53.94517402 37.99156523 -57.25 38.5 C-58.1575 38.335 -59.065 38.17 -60 38 C-62.26356597 34.60465104 -62.15127194 33.12336592 -61.53857422 29.18896484 C-60.61593139 25.4390031 -58.89047993 22.19345402 -57.0625 18.8125 C-56.34332815 17.4449156 -55.62583687 16.07644591 -54.91015625 14.70703125 C-54.5764502 14.0723291 -54.24274414 13.43762695 -53.89892578 12.78369141 C-52.78582288 10.57501954 -51.85971754 8.31808656 -51 6 C-55.61611625 9.47195068 -58.496642 12.81314068 -61.125 18 C-61.63365601 18.97380615 -61.63365601 18.97380615 -62.15258789 19.96728516 C-64.87423965 25.35300143 -66.72749681 30.75785821 -68.30859375 36.5859375 C-69 39 -69 39 -70 40 C-71.99958364 40.04080783 -74.00045254 40.04254356 -76 40 C-75.43955612 33.36029682 -73.70634505 27.58153262 -71.5 21.3125 C-70.86184723 19.47620899 -70.22633945 17.6389962 -69.59375 15.80078125 C-69.31208984 14.99809814 -69.03042969 14.19541504 -68.74023438 13.3684082 C-67.97799437 10.92959216 -67.45723679 8.51229313 -67 6 C-71.71250106 9.20450072 -73.70106597 12.55569551 -76.0625 17.5625 C-76.57792358 18.62561401 -76.57792358 18.62561401 -77.10375977 19.71020508 C-80.55905909 26.95280757 -83.42281061 34.11405305 -85 42 C-88.63 42.66 -92.26 43.32 -96 44 C-94.2453779 38.37462863 -91.89378181 33.10788629 -89.47851562 27.74609375 C-87.22993466 22.69514118 -85.85640993 18.76412477 -85.9375 13.25 C-85.94652344 12.45078125 -85.95554687 11.6515625 -85.96484375 10.828125 C-85.97644531 10.22484375 -85.98804687 9.6215625 -86 9 C-91.39919711 8.66357071 -91.39919711 8.66357071 -96.5 10.0625 C-98.74426817 12.96134638 -98.2676336 15.45385476 -98 19 C-94.02245872 19.73334429 -94.02245872 19.73334429 -90 20 C-90.90372911 22.78649808 -91.7391517 24.72051967 -93.75 26.875 C-96.93113234 28.46556617 -98.64343986 28.04892504 -102 27 C-104.375 25.5 -104.375 25.5 -106 23 C-106.86996826 18.33057855 -106.43514591 14.90376459 -104.375 10.625 C-101.0999996 7.00526272 -98.46305095 5.32023616 -93.56640625 4.68359375 C-89.21069754 4.48295932 -86.71831913 4.56021278 -82.9375 6.875 C-81 9 -81 9 -80 11 C-79.25556641 10.04287109 -79.25556641 10.04287109 -78.49609375 9.06640625 C-72.25127148 1.47071161 -72.25127148 1.47071161 -68.1875 0.75 C-65 1 -65 1 -63.125 2.125 C-61.76473469 4.39210885 -61.35219343 6.39376858 -61 9 C-60.2265625 7.88625 -60.2265625 7.88625 -59.4375 6.75 C-56.42899684 3.35579131 -54.13041521 1.88404904 -50 0 C-45.72093023 0.27906977 -45.72093023 0.27906977 -44 2 C-43.29996695 7.73318206 -45.407016 11.60967234 -47.9375 16.5625 C-51.2706789 23.00190706 -51.2706789 23.00190706 -53 30 C-51.35 29.67 -49.7 29.34 -48 29 C-47.7215625 27.7625 -47.7215625 27.7625 -47.4375 26.5 C-45.50950381 21.8057484 -42.82307845 18.33722889 -39 15 C-33.58853023 13.33493238 -27.64740999 14 -22 14 C-22 14.66 -22 15.32 -22 16 C-22.66 16 -23.32 16 -24 16 C-25.74849671 20.3039919 -27.3770361 24.64750591 -29 29 C-23.25290303 26.58232641 -21.61654599 22.06790302 -19.0625 16.75 C-9.85236708 -2.25783412 -9.85236708 -2.25783412 0 0 Z M-4 3 C-5.58455866 4.78723941 -5.58455866 4.78723941 -7.125 7 C-7.93324219 8.11375 -7.93324219 8.11375 -8.7578125 9.25 C-9.16773437 9.8275 -9.57765625 10.405 -10 11 C-9.67 11.66 -9.34 12.32 -9 13 C-8.01524786 11.90081184 -7.03739527 10.7954398 -6.0625 9.6875 C-5.51722656 9.07261719 -4.97195312 8.45773438 -4.41015625 7.82421875 C-2.79918441 5.94758042 -2.79918441 5.94758042 -2 3 C-2.66 3 -3.32 3 -4 3 Z M-36 18 C-39.44186399 21.52381313 -41.55443866 23.95030484 -42 29 C-41.01 29.495 -41.01 29.495 -40 30 C-37.09197539 27.78071806 -35.04687238 26.07030857 -33 23 C-32.83286431 20.37468476 -32.83286431 20.37468476 -33 18 C-33.99 18 -34.98 18 -36 18 Z M-12.625 22.5 C-13.40875 23.325 -14.1925 24.15 -15 25 C-12.00847418 24.22520264 -12.00847418 24.22520264 -9 23 C-8.67 22.01 -8.34 21.02 -8 20 C-10.36278736 19.77011494 -10.36278736 19.77011494 -12.625 22.5 Z " fill="#F1CF74" transform="translate(108,6)"/>
<path d="M0 0 C2.64 0 5.28 0 8 0 C8.33 1.98 8.66 3.96 9 6 C12.41124018 4.58845234 13.8456223 2.93778777 16 0 C16.66 0 17.32 0 18 0 C17.67 1.98 17.34 3.96 17 6 C17.99 4.02 18.98 2.04 20 0 C43.43 0 66.86 0 91 0 C88.74787535 6.75637394 88.74787535 6.75637394 85.9375 10.3125 C85.41027344 10.98925781 84.88304688 11.66601562 84.33984375 12.36328125 C83 14 83 14 82 15 C79.72671471 15.12609266 77.44946068 15.18087864 75.17285156 15.20874023 C74.10203339 15.22341591 74.10203339 15.22341591 73.00958252 15.23838806 C70.63661582 15.26840951 68.26370586 15.28974814 65.890625 15.30859375 C65.08137321 15.31516558 64.27212143 15.3217374 63.43834686 15.32850838 C59.15325163 15.36113469 54.86818158 15.38557508 50.58300781 15.4050293 C47.03446245 15.42283544 43.48671284 15.45763809 39.93847656 15.50756836 C35.65784493 15.5677412 31.37795064 15.59850128 27.0969162 15.60820198 C25.46538473 15.61676502 23.8338734 15.63560439 22.20258331 15.6649456 C19.91575854 15.70385595 17.63180369 15.70489727 15.34472656 15.69702148 C14.04424377 15.70732895 12.74376099 15.71763641 11.40386963 15.72825623 C6.66184615 14.71370265 5.71892557 12.93847481 3 9 C2.401875 8.13375 1.80375 7.2675 1.1875 6.375 C0 4 0 4 0 0 Z " fill="#FED068" transform="translate(29,115)"/>
<path d="M0 0 C23.43 0 46.86 0 71 0 C71 6.76144905 70.46046796 9.1563886 68 15 C58.94222056 15.02317038 49.88445132 15.04093907 40.82664871 15.05181217 C36.62074995 15.05703071 32.41487147 15.06410971 28.20898438 15.07543945 C24.15007071 15.08630486 20.09117654 15.0922846 16.03224945 15.09487724 C14.48370812 15.09672489 12.93516785 15.10033286 11.38663483 15.10573006 C9.21769402 15.11298894 7.04883381 15.11398889 4.87988281 15.11352539 C3.64522278 15.115746 2.41056274 15.11796661 1.13848877 15.12025452 C-1.45026377 15.02106373 -3.54512713 14.77070869 -6 14 C-5.7215625 13.1028125 -5.7215625 13.1028125 -5.4375 12.1875 C-4.77906313 9.83591238 -4.77906313 9.83591238 -6 7 C-5.01 7 -4.02 7 -3 7 C-2.67 6.34 -2.34 5.68 -2 5 C-1.52691406 5.3609375 -1.05382813 5.721875 -0.56640625 6.09375 C4.67108369 9.76918153 8.63572148 10.87869723 15 10 C15.99 9.67 16.98 9.34 18 9 C18 8.34 18 7.68 18 7 C14.31286264 4.73830234 10.460444 4.36051434 6.25 3.875 C5.55261719 3.78863281 4.85523438 3.70226562 4.13671875 3.61328125 C2.42527668 3.40228154 0.71273371 3.20024499 -1 3 C-0.67 2.01 -0.34 1.02 0 0 Z " fill="#D8AE5A" transform="translate(52,99)"/>
<path d="M0 0 C2.45862401 -0.05383848 4.9160755 -0.09359038 7.375 -0.125 C8.42300781 -0.15013672 8.42300781 -0.15013672 9.4921875 -0.17578125 C11.32897486 -0.19344267 13.16601963 -0.10303261 15 0 C15.66 0.66 16.32 1.32 17 2 C19.91069145 2.72786516 19.91069145 2.72786516 23.25 3.1875 C24.36890625 3.36667969 25.4878125 3.54585938 26.640625 3.73046875 C29.99563464 3.99964976 32.70572119 3.58161702 36 3 C36.99 3.33 37.98 3.66 39 4 C39 4.66 39 5.32 39 6 C39.99 6.33 40.98 6.66 42 7 C42 7.66 42 8.32 42 9 C42.99 9.33 43.98 9.66 45 10 C45.309375 8.906875 45.61875 7.81375 45.9375 6.6875 C46.97626794 4.26697471 47.63208434 3.21686086 49.921875 1.8671875 C55.0359439 0.0508113 59.61187902 -0.28358531 65 0 C65.66 0 66.32 0 67 0 C69.33333333 0 71.66666667 0 74 0 C73.01 0.99 72.02 1.98 71 3 C71.495 4.485 71.495 4.485 72 6 C71.34 6.99 70.68 7.98 70 9 C70.78375 8.67 71.5675 8.34 72.375 8 C75 7 75 7 77 7 C77.66 5.35 78.32 3.7 79 2 C80.32 2.66 81.64 3.32 83 4 C82.34 4.33 81.68 4.66 81 5 C81 5.66 81 6.32 81 7 C84.43793339 6.81870185 84.43793339 6.81870185 88 6 C89.51294288 4.06402968 89.51294288 4.06402968 90 2 C92.51912388 2.33588318 93.67196119 2.57354954 95.25 4.625 C96.24787748 7.78494535 96.04608983 10.70457698 96 14 C86.82912024 14.04636882 77.65828093 14.08189231 68.48730946 14.10362434 C64.22872078 14.11405535 59.97021239 14.12820209 55.71166992 14.15087891 C51.60087483 14.17263163 47.49015691 14.18457377 43.3793087 14.18975449 C41.81204705 14.19344588 40.24478955 14.20065425 38.67756081 14.21146011 C36.48001652 14.22600742 34.28278988 14.2279766 32.08520508 14.22705078 C30.83500076 14.231492 29.58479645 14.23593323 28.29670715 14.24050903 C25.09315668 14.00679618 22.87762603 13.37897409 20 12 C19.67 12.66 19.34 13.32 19 14 C12.86407696 13.87216827 10.26638593 11.92115422 5.9921875 7.59375 C3.66607264 5.73285812 1.92362301 5.36418833 -1 5 C-0.67 3.35 -0.34 1.7 0 0 Z M16 10 C17 12 17 12 17 12 Z " fill="#FED067" transform="translate(27,83)"/>
<path d="M0 0 C23.1 0 46.2 0 70 0 C65.98627584 8.02744832 57.65755462 11.52006186 49.4453125 14.2734375 C48.63835937 14.51320312 47.83140625 14.75296875 47 15 C46.38769531 15.19207031 45.77539062 15.38414062 45.14453125 15.58203125 C30.74485838 18.38852487 17.27916765 14.70229418 5.2421875 6.68359375 C3.29314744 5.22011593 1.57474269 3.85778468 0 2 C0 1.34 0 0.68 0 0 Z " fill="#D7AD59" transform="translate(39,131)"/>
<path d="M0 0 C1.66796875 1.3203125 1.66796875 1.3203125 3.98046875 3.5703125 C3.98046875 4.2303125 3.98046875 4.8903125 3.98046875 5.5703125 C-19.11953125 5.5703125 -42.21953125 5.5703125 -66.01953125 5.5703125 C-66.01953125 4.9103125 -66.01953125 4.2503125 -66.01953125 3.5703125 C-46.58871935 -13.75676977 -21.11721393 -14.94951701 0 0 Z " fill="#FED068" transform="translate(105.01953125,59.4296875)"/>
<path d="M0 0 C0.95486298 0.00444122 1.90972595 0.00888245 2.89352417 0.01345825 C4.51497849 0.01368484 4.51497849 0.01368484 6.16918945 0.01391602 C7.92548172 0.02939987 7.92548172 0.02939987 9.71725464 0.04519653 C11.51088943 0.04944138 11.51088943 0.04944138 13.34075928 0.05377197 C17.17208733 0.06499599 21.00318436 0.09010472 24.83444214 0.11550903 C27.42688669 0.12553596 30.01933489 0.1346623 32.61178589 0.14285278 C38.97775056 0.16494257 45.34357985 0.19844197 51.70944214 0.24050903 C51.04944214 0.98300903 50.38944214 1.72550903 49.70944214 2.49050903 C47.31732767 5.21293848 47.31732767 5.21293848 47.70944214 9.24050903 C48.36944214 9.24050903 49.02944214 9.24050903 49.70944214 9.24050903 C49.70944214 10.89050903 49.70944214 12.54050903 49.70944214 14.24050903 C29.90944214 14.24050903 10.10944214 14.24050903 -10.29055786 14.24050903 C-3.34596694 0.3513272 -3.34596694 0.3513272 0 0 Z " fill="#D8AE5A" transform="translate(38.290557861328125,66.75949096679688)"/>
<path d="M0 0 C6.35987804 -0.20190089 11.85221129 0.3722167 18 2 C18.1875 4.375 18.1875 4.375 18 7 C17.01 7.66 16.02 8.32 15 9 C13.78715124 12.05429073 13.78715124 12.05429073 13 15 C12.01 15 11.02 15 10 15 C10.33 13.02 10.66 11.04 11 9 C9.02 11.97 9.02 11.97 7 15 C5.35 14.67 3.7 14.34 2 14 C0.66416101 9.15758367 -0.25328119 5.06562383 0 0 Z " fill="#D7AD59" transform="translate(25,99)"/>
<path d="M0 0 C3.83116361 -0.62351668 7.19275065 -0.8483267 11 0 C15.10096865 3.79535054 17.94349256 8.48554654 19 14 C12.94462479 13.69723124 9.48516542 10.72245962 5 7 C5.33 5.68 5.66 4.36 6 3 C5.195625 2.87625 4.39125 2.7525 3.5625 2.625 C2.716875 2.41875 1.87125 2.2125 1 2 C0.67 1.34 0.34 0.68 0 0 Z " fill="#D7AD59" transform="translate(101,67)"/>
<path d="M0 0 C0.99 0.495 0.99 0.495 2 1 C2 1.66 2 2.32 2 3 C2.99 3 3.98 3 5 3 C4.67 3.99 4.34 4.98 4 6 C2.68 6 1.36 6 0 6 C0 4.02 0 2.04 0 0 Z " fill="#D6AB56" transform="translate(89,75)"/>
<path d="M0 0 C0.66 0 1.32 0 2 0 C2 0.66 2 1.32 2 2 C2.66 2 3.32 2 4 2 C4 2.99 4 3.98 4 5 C2.68 5 1.36 5 0 5 C0 3.35 0 1.7 0 0 Z " fill="#FECE64" transform="translate(25,92)"/>
<path d="M0 0 C1.65 0 3.3 0 5 0 C3.625 2 3.625 2 2 4 C1.34 4 0.68 4 0 4 C0 2.68 0 1.36 0 0 Z " fill="#DAB159" transform="translate(93,67)"/>
<path d="M0 0 C0.66 0 1.32 0 2 0 C0.25 4.875 0.25 4.875 -2 6 C-1.34 4.02 -0.68 2.04 0 0 Z " fill="#FDCF65" transform="translate(104,83)"/>
<path d="M0 0 C0.66 0.99 1.32 1.98 2 3 C1.01 3 0.02 3 -1 3 C-0.67 2.01 -0.34 1.02 0 0 Z " fill="#DDB154" transform="translate(96,78)"/>
<path d="M0 0 C0.99 0.33 1.98 0.66 3 1 C2.01 1.33 1.02 1.66 0 2 C0 1.34 0 0.68 0 0 Z " fill="#D8AE57" transform="translate(105,76)"/>
<path d="M0 0 C0.66 0 1.32 0 2 0 C1.67 0.66 1.34 1.32 1 2 C0.67 1.34 0.34 0.68 0 0 Z " fill="#FFCA60" transform="translate(119,83)"/>
<path d="" fill="#FFD061" transform="translate(0,0)"/>
</svg>
