<?xml version="1.0" encoding="UTF-8"?>
<svg version="1.1" xmlns="http://www.w3.org/2000/svg" width="500" height="500">
<path d="M0 0 C165 0 330 0 500 0 C500 165 500 330 500 500 C335 500 170 500 0 500 C0 335 0 170 0 0 Z " fill="#FEFEFE" transform="translate(0,0)"/>
<path d="M0 0 C0.22849796 7.15269442 0.38592406 14.30444648 0.49438477 21.45996094 C0.53960193 23.89293585 0.60098912 26.32566678 0.67895508 28.7578125 C0.78834919 32.25842416 0.83921234 35.75580166 0.87890625 39.2578125 C0.92535782 40.34240753 0.97180939 41.42700256 1.01966858 42.54446411 C1.02459103 49.93493 1.02459103 49.93493 -1.87358093 52.94760132 C-4.18373512 54.5105053 -6.49388703 55.78065422 -9 57 C-9.96284912 57.5882959 -10.92569824 58.1765918 -11.91772461 58.78271484 C-14.58849208 60.31794032 -17.26026865 61.85106648 -19.9375 63.375 C-21.35385742 64.19291016 -21.35385742 64.19291016 -22.79882812 65.02734375 C-23.69923828 65.54167969 -24.59964844 66.05601563 -25.52734375 66.5859375 C-26.33937256 67.0504834 -27.15140137 67.5150293 -27.98803711 67.99365234 C-30 69 -30 69 -32 69 C-32 64.71 -32 60.42 -32 56 C-33.44375 56.825 -34.8875 57.65 -36.375 58.5 C-40.75 61 -40.75 61 -43 61 C-42.67 69.58 -42.34 78.16 -42 87 C-39.855 85.80375 -37.71 84.6075 -35.5 83.375 C-34.75121582 82.95863281 -34.00243164 82.54226562 -33.23095703 82.11328125 C-28.70228006 79.57545157 -24.23998908 76.94797147 -19.8046875 74.25 C-18.21043945 73.2902124 -18.21043945 73.2902124 -16.58398438 72.31103516 C-14.46504319 71.0326417 -12.35411612 69.74085809 -10.25195312 68.43505859 C-9.26904297 67.84547363 -8.28613281 67.25588867 -7.2734375 66.6484375 C-6.40122559 66.11395996 -5.52901367 65.57948242 -4.63037109 65.02880859 C-1.25322456 63.70791612 0.53066096 64.02599222 4 65 C6.65527344 66.25244141 6.65527344 66.25244141 9.359375 67.8515625 C10.37902344 68.44775391 11.39867187 69.04394531 12.44921875 69.65820312 C13.53847656 70.30724609 14.62773437 70.95628906 15.75 71.625 C16.90697352 72.30502178 18.06453713 72.98404047 19.22265625 73.66210938 C21.62665148 75.07067324 24.02805773 76.48350641 26.42773438 77.89941406 C31.92834825 81.14016946 37.46600709 84.3167111 43 87.5 C45.16945543 88.750982 47.33872579 90.00228503 49.5078125 91.25390625 C50.58063477 91.87281738 51.65345703 92.49172852 52.75878906 93.12939453 C55.98301005 94.99019456 59.20644874 96.85234291 62.4296875 98.71484375 C74.23629484 105.53502637 86.06027 112.3232326 97.90472412 119.07736206 C106.93587706 124.22912335 115.92774208 129.44507122 124.90039062 134.69799805 C137.21177867 141.89499959 149.6103375 148.9389115 162 156 C166.62 158.64 171.24 161.28 176 164 C176 197.33 176 230.66 176 265 C172.05409919 263.42163967 168.71088023 261.79341559 165.0546875 259.69140625 C164.49181534 259.36894928 163.92894318 259.04649231 163.34901428 258.71426392 C161.52251557 257.6668217 159.69873212 256.61475056 157.875 255.5625 C156.60504286 254.8328389 155.33494077 254.10343003 154.06469727 253.37426758 C150.37381421 251.25409713 146.68645256 249.12786222 143 247 C142.05527832 246.45504883 141.11055664 245.91009766 140.13720703 245.34863281 C135.49014642 242.6663648 130.84783577 239.97600621 126.20800781 237.28125 C123.96026429 235.97694239 121.71087469 234.67551949 119.4609375 233.375 C111.69335744 228.88458567 103.93433568 224.38016599 96.18823242 219.8527832 C86.7967063 214.36397623 77.38357376 208.91777868 67.9296875 203.53710938 C61.30078537 199.75843549 54.70933807 195.91820779 48.125 192.0625 C39.07848024 186.76681552 29.98993138 181.55216958 20.84082031 176.43554688 C16.8713816 174.21221597 12.92089131 171.98716452 9.0703125 169.5625 C7.48863281 168.5725 7.48863281 168.5725 5.875 167.5625 C5.02679688 167.00691406 4.17859375 166.45132813 3.3046875 165.87890625 C1.02257984 164.73311302 1.02257984 164.73311302 -1.25268555 165.72729492 C-4.35717725 167.16546388 -7.2938974 168.7811612 -10.26171875 170.484375 C-10.85241653 170.82245178 -11.44311432 171.16052856 -12.05171204 171.5088501 C-13.29893371 172.22346186 -14.54527187 172.93961762 -15.79077148 173.65722656 C-18.27530389 175.08865494 -20.76418637 176.51243119 -23.25354004 177.93545532 C-24.463679 178.63263411 -25.66987886 179.33669702 -26.87194824 180.04769897 C-29.57201696 181.64195619 -32.24207302 183.10933682 -35.1015625 184.40087891 C-37.87296386 185.71926009 -39.88022759 186.77685977 -42 189 C-43.19406664 193.35639165 -42.95322741 197.40100787 -42.625 201.875 C-42.57988281 203.0403125 -42.53476563 204.205625 -42.48828125 205.40625 C-42.37066384 208.2761148 -42.20665828 211.13539824 -42 214 C-38.65360658 212.71552576 -35.72553957 211.3541885 -33 209 C-32.48571548 206.65493707 -32.48571548 206.65493707 -32.63671875 204.1171875 C-32.60302734 201.48339844 -32.60302734 201.48339844 -32 199 C-28.6918928 195.92265532 -24.85066898 194.09627375 -20.8125 192.125 C-18.73491562 191.04573539 -16.65807091 189.96504551 -14.58203125 188.8828125 C-13.60572754 188.38942383 -12.62942383 187.89603516 -11.62353516 187.38769531 C-9.44538303 186.23558135 -7.45946724 185.03275043 -5.44921875 183.6171875 C-3 182 -3 182 0 182 C0.43368505 188.36545764 0.72966523 194.72709134 0.93383789 201.10400391 C1.0189653 203.26821067 1.13473107 205.43144953 1.2824707 207.59228516 C2.44411376 225.02898961 2.44411376 225.02898961 -1.5774231 229.91748047 C-5.6123038 233.21706497 -10.14192203 235.27185351 -14.96310425 237.17584229 C-17.45648725 238.18470139 -19.6896107 239.47430303 -21.97265625 240.890625 C-23.33565728 241.67756888 -24.69893509 242.46403358 -26.0625 243.25 C-33.46582126 247.52882642 -40.86148083 251.82066066 -48.25 256.125 C-49.26602295 256.71651855 -50.2820459 257.30803711 -51.32885742 257.91748047 C-57.83285352 261.71205024 -64.30929602 265.54843844 -70.71191406 269.51220703 C-74.78415847 272 -74.78415847 272 -77 272 C-77.34807004 259.24832384 -77.61432241 246.49778273 -77.77718258 233.74231815 C-77.85536572 227.81860781 -77.96131831 221.89815396 -78.1315918 215.97631836 C-78.29500094 210.25719398 -78.38434054 204.54119289 -78.42315865 198.81991386 C-78.45080461 196.64143106 -78.50480203 194.46311328 -78.58595085 192.28596687 C-79.18078029 175.66076138 -79.18078029 175.66076138 -75.54016304 171.21885872 C-71.99676824 168.24796137 -68.0944121 166.3793924 -63.80378819 164.72394562 C-61.31277431 163.72418379 -59.07306679 162.38290885 -56.78515625 160.98828125 C-55.21172499 160.0949657 -53.63749916 159.20304828 -52.0625 158.3125 C-44.1986721 153.8431039 -36.37086169 149.31558494 -28.5625 144.75 C-14.31142419 136.42457464 -14.31142419 136.42457464 -8.6875 133.1875 C-7.63949219 132.58292969 -6.59148437 131.97835937 -5.51171875 131.35546875 C-3 130 -3 130 0 129 C2.31469727 130.02539062 2.31469727 130.02539062 5.06640625 131.65625 C6.09588379 132.25896729 7.12536133 132.86168457 8.18603516 133.48266602 C9.30026855 134.14838623 10.41450195 134.81410645 11.5625 135.5 C12.73162937 136.18848912 13.90139925 136.87589163 15.07177734 137.56225586 C17.50720664 138.99159843 19.9397922 140.42561544 22.37060547 141.86279297 C27.9283063 145.14287796 33.52931049 148.34782872 39.125 151.5625 C47.39156831 156.32608603 55.63973165 161.12003887 63.875 165.9375 C73.14096534 171.35685334 82.44992009 176.69795389 91.77636719 182.01217651 C101.16899375 187.36530664 110.52227782 192.78313681 119.85351562 198.24267578 C127.2082565 202.54467134 134.59178403 206.79078638 142 211 C142 202.42 142 193.84 142 185 C140.39253906 184.10539063 138.78507813 183.21078125 137.12890625 182.2890625 C126.77455521 176.51544557 116.43363121 170.73272719 106.23876953 164.68115234 C100.83775371 161.47896392 95.39463047 158.35547807 89.9375 155.25 C82.26330024 150.88110891 74.62220172 146.45897272 67 142 C58.68151065 137.13420525 50.33560342 132.3210888 41.95996094 127.55444336 C34.02410758 123.03076564 26.13546496 118.42749217 18.25585938 113.80664062 C16.38415254 112.71066505 14.50927254 111.62008582 12.63085938 110.53564453 C10.90889614 109.53052679 9.20091553 108.50096391 7.50976562 107.44482422 C6.73826172 106.97705566 5.96675781 106.50928711 5.171875 106.02734375 C4.50768555 105.610896 3.84349609 105.19444824 3.15917969 104.76538086 C-0.68489228 103.40274341 -3.88133759 104.47470159 -7.47167969 106.16064453 C-8.28024414 106.64645996 -9.08880859 107.13227539 -9.921875 107.6328125 C-10.85169189 108.18412842 -11.78150879 108.73544434 -12.73950195 109.3034668 C-13.73296631 109.90457275 -14.72643066 110.50567871 -15.75 111.125 C-17.90447318 112.40574685 -20.05943843 113.68566624 -22.21484375 114.96484375 C-23.88716064 115.96233643 -23.88716064 115.96233643 -25.59326172 116.97998047 C-31.13683592 120.26703314 -36.72485705 123.47612537 -42.3125 126.6875 C-48.46836354 130.23085271 -54.62322842 133.77536549 -60.7578125 137.35546875 C-61.63783936 137.86827393 -62.51786621 138.3810791 -63.42456055 138.90942383 C-65.05237024 139.8587818 -66.67891945 140.81030569 -68.30395508 141.7644043 C-69.01704834 142.17988525 -69.7301416 142.59536621 -70.46484375 143.0234375 C-71.38704712 143.56363525 -71.38704712 143.56363525 -72.32788086 144.11474609 C-74 145 -74 145 -77 146 C-77.23182588 132.95251372 -77.40944594 119.90551819 -77.51812172 106.85639095 C-77.5702852 100.79683061 -77.64101898 94.73868035 -77.75439453 88.67993164 C-77.86315134 82.83132166 -77.92286252 76.98406658 -77.94877243 71.13452339 C-77.96723269 68.90443144 -78.00328418 66.67441271 -78.05730057 64.44489861 C-78.46334869 46.98911829 -78.46334869 46.98911829 -74.90661621 42.15447998 C-72.32379781 40.30372355 -69.96296466 39.12133925 -67 38 C-65.98325195 37.3817334 -64.96650391 36.7634668 -63.91894531 36.12646484 C-62.63648926 35.42577881 -62.63648926 35.42577881 -61.328125 34.7109375 C-60.34537598 34.16864502 -59.36262695 33.62635254 -58.35009766 33.06762695 C-57.32706543 32.50906006 -56.3040332 31.95049316 -55.25 31.375 C-46.97229689 26.79899338 -38.75376481 22.14847177 -30.625 17.3125 C-29.73756104 16.78487061 -28.85012207 16.25724121 -27.93579102 15.71362305 C-26.17443355 14.6662551 -24.41312113 13.61881139 -22.65185547 12.57128906 C-18.17729614 9.92000349 -13.68495588 7.29971043 -9.1875 4.6875 C-8.3742627 4.2128833 -7.56102539 3.7382666 -6.72314453 3.24926758 C-1.11792914 0 -1.11792914 0 0 0 Z " fill="#020202" transform="translate(246,14)"/>
<path d="M0 0 C-0.02065647 1.03145897 -0.04131294 2.06291794 -0.06259537 3.12563324 C-0.55976248 28.27446193 -0.89404133 53.42148987 -1.05958939 78.57474518 C-1.14338736 90.73957151 -1.27921562 102.89957677 -1.53955078 115.06201172 C-1.76645465 125.66886079 -1.8936852 136.27154291 -1.90351081 146.88089418 C-1.91213426 152.49605617 -1.96907117 158.10094642 -2.14563751 163.71354675 C-4.01804626 186.26212405 -4.01804626 186.26212405 3.67347717 206.37423706 C9.88505017 212.01632398 17.48072509 214.92963855 25.33344269 217.61553955 C31.48132153 219.93692563 36.89315228 223.34691827 42.5 226.75 C44.61991563 227.97954662 46.74198834 229.20538963 48.8671875 230.42578125 C57.63702454 235.51861634 66.32971676 240.73982987 75 246 C69.58468042 250.50751712 63.67167814 253.83906596 57.5625 257.3125 C56.44294922 257.97056641 55.32339844 258.62863281 54.16992188 259.30664062 C52.54086914 260.23186523 52.54086914 260.23186523 50.87890625 261.17578125 C49.8947876 261.74208252 48.91066895 262.30838379 47.89672852 262.8918457 C44.35656045 264.2461502 42.6183814 264.04333515 39 263 C36.31298828 261.73168945 36.31298828 261.73168945 33.5703125 260.11328125 C32.5400293 259.51177246 31.50974609 258.91026367 30.44824219 258.29052734 C29.35157227 257.63777832 28.25490234 256.9850293 27.125 256.3125 C25.96568726 255.63144171 24.80584761 254.95127964 23.64550781 254.27197266 C21.25926929 252.87330465 18.87603631 251.46971494 16.49511719 250.06201172 C13.24712341 248.14304785 9.98868975 246.24251495 6.7265625 244.34765625 C-4.31168181 237.93473483 -4.31168181 237.93473483 -7.21990967 236.08026123 C-10.16607413 234.3211219 -13.13209408 233.22122968 -16.37020874 232.09825134 C-22.928758 229.51586882 -28.60697686 226.65904171 -33 221 C-36.82945335 210.08393667 -35.63227012 197.74973702 -35.23066664 186.36357856 C-35.0922842 181.77457847 -35.08015164 177.18520106 -35.05410767 172.59443665 C-34.98596255 163.91854306 -34.80580179 155.24881338 -34.58441889 146.57562429 C-34.33773842 136.69488668 -34.21736943 126.81384006 -34.10711932 116.93078554 C-33.87770481 96.61709437 -33.49124829 76.30893663 -33 56 C-33.62567871 56.36351562 -34.25135742 56.72703125 -34.89599609 57.1015625 C-37.71977077 58.73883754 -40.54731402 60.36949016 -43.375 62 C-44.85226563 62.85851562 -44.85226563 62.85851562 -46.359375 63.734375 C-47.30039063 64.27578125 -48.24140625 64.8171875 -49.2109375 65.375 C-50.51490479 66.12910156 -50.51490479 66.12910156 -51.84521484 66.8984375 C-54 68 -54 68 -56 68 C-56 123.11 -56 178.22 -56 235 C-53.03 235.99 -53.03 235.99 -50 237 C-47.57850904 238.32754681 -45.22885903 239.68764415 -42.875 241.125 C-35.71268472 245.41836314 -28.49070007 249.59852835 -21.23284912 253.72790527 C-17.62605663 255.78125721 -14.02352853 257.84208092 -10.42047119 259.90197754 C-9.82329285 260.24337769 -9.2261145 260.58477783 -8.61083984 260.93652344 C-8.01478943 261.27727905 -7.41873901 261.61803467 -6.80462646 261.96911621 C-5.00145633 262.99916808 -3.19733606 264.0275396 -1.39306641 265.05566406 C1.9931915 266.98637038 5.37188497 268.93007877 8.75 270.875 C9.78584229 271.4637793 10.82168457 272.05255859 11.88891602 272.65917969 C12.82791748 273.20219727 13.76691895 273.74521484 14.734375 274.3046875 C15.56163086 274.77890137 16.38888672 275.25311523 17.24121094 275.74169922 C17.82161133 276.15693848 18.40201172 276.57217773 19 277 C19 277.66 19 278.32 19 279 C15.40837534 281.08357088 11.81539697 283.16478238 8.22119141 285.24389648 C7.00077209 285.95029365 5.78071337 286.65731422 4.56103516 287.36499023 C2.79946724 288.38693008 1.03657899 289.40655925 -0.7265625 290.42578125 C-1.78439941 291.03848877 -2.84223633 291.65119629 -3.93212891 292.2824707 C-5.4507251 293.13264771 -5.4507251 293.13264771 -7 294 C-8.52838501 294.92220337 -8.52838501 294.92220337 -10.08764648 295.86303711 C-13 297 -13 297 -15.46264648 296.29003906 C-16.65482788 295.5354541 -16.65482788 295.5354541 -17.87109375 294.765625 C-18.76747559 294.21551758 -19.66385742 293.66541016 -20.58740234 293.09863281 C-21.52793457 292.48858398 -22.4684668 291.87853516 -23.4375 291.25 C-24.4167041 290.6425293 -25.3959082 290.03505859 -26.40478516 289.40917969 C-28.37489311 288.18590793 -30.33920852 286.95325352 -32.29736328 285.7109375 C-35.78984507 283.49997884 -39.32559473 281.3678344 -42.875 279.25 C-43.46845215 278.89228516 -44.0619043 278.53457031 -44.67333984 278.16601562 C-48.25215748 276.01461033 -51.85836212 273.92342842 -55.51334095 271.90384388 C-56.8163054 271.17016849 -58.10879569 270.41732151 -59.38594341 269.639575 C-63.36669805 267.25944924 -67.09192088 265.6052487 -71.5448761 264.2882843 C-78.37148237 261.90014086 -83.80551107 259.05501062 -88 253 C-92.70816394 240.17953084 -90.91937936 224.34632816 -90.658777 210.95372558 C-90.56914715 205.32413245 -90.59485441 199.69490845 -90.60456848 194.06477356 C-90.60342024 184.61743751 -90.51601713 175.17399013 -90.3737793 165.7277832 C-90.2102518 154.81607173 -90.17010861 143.90935987 -90.1987049 132.99657363 C-90.22455471 122.47895068 -90.17639376 111.9630296 -90.09005165 101.44576454 C-90.05388321 96.97802741 -90.04114502 92.51113765 -90.0469265 88.04326439 C-90.0494422 82.78237328 -89.98630999 77.52616862 -89.87285423 72.26654053 C-89.84135379 70.33989506 -89.83169286 68.41274683 -89.84575272 66.48589516 C-89.93067426 51.96331525 -89.93067426 51.96331525 -85.2129612 47.16584206 C-82.0156078 44.97378815 -78.56843491 43.50246401 -75 42 C-72.82509805 40.77450687 -70.66268954 39.52629079 -68.51953125 38.24609375 C-66.28500416 36.97453946 -64.04928842 35.70507216 -61.8125 34.4375 C-59.35093802 33.0375546 -56.89034633 31.63590707 -54.4296875 30.234375 C-53.81103317 29.88227463 -53.19237885 29.53017426 -52.55497742 29.16740417 C-46.16878514 25.53113755 -39.80167027 21.8621775 -33.4375 18.1875 C-32.37313721 17.57374512 -31.30877441 16.95999023 -30.2121582 16.32763672 C-25.20674251 13.43916659 -20.20796821 10.54023321 -15.22265625 7.6171875 C-14.33586182 7.09874268 -13.44906738 6.58029785 -12.53540039 6.04614258 C-10.89046508 5.08357427 -9.24759059 4.11747221 -7.60717773 3.1472168 C-2.22328636 0 -2.22328636 0 0 0 Z " fill="#D8AF5D" transform="translate(158,129)"/>
<path d="M0 0 C2.22079971 1.03673696 4.39997859 2.11869124 6.56881714 3.26150513 C9.1157518 4.55197347 11.61348215 5.68512598 14.23635864 6.79147339 C25.50559702 11.93972715 25.50559702 11.93972715 27.99022675 17.02780914 C29.56716225 22.89887408 29.28206245 28.91904587 29.1171875 34.9453125 C29.11848306 36.88484848 29.12542511 38.82438809 29.13772583 40.7638855 C29.14471467 44.81598744 29.09273124 48.86166312 28.99658203 52.91259766 C28.87711935 58.09169229 28.89160972 63.25992601 28.94851494 68.43974495 C28.98003301 72.4402095 28.94758601 76.43817904 28.89535904 80.43835068 C28.87670827 82.34633299 28.87603389 84.25458301 28.89410019 86.16257095 C28.97325564 100.97565463 28.97325564 100.97565463 24.21180725 105.86038208 C21.01684334 108.05004015 17.56920974 109.50858403 14 111 C11.77658203 112.20364568 9.62161809 113.4930594 7.44921875 114.7890625 C5.19638318 116.06959382 2.94244231 117.34818218 0.6875 118.625 C-1.78870445 120.03219835 -4.2636803 121.44154656 -6.73828125 122.8515625 C-7.35430206 123.20244934 -7.97032288 123.55333618 -8.60501099 123.91485596 C-14.42740462 127.23551892 -20.2167367 130.61169268 -26 134 C-34.59503781 139.03213445 -43.22328451 144.00360845 -51.875 148.9375 C-61.0508875 154.17155747 -70.22198406 159.41348275 -79.375 164.6875 C-80.43251465 165.29658203 -81.4900293 165.90566406 -82.57958984 166.53320312 C-87.88820972 169.59854793 -93.17878201 172.69095837 -98.4453125 175.828125 C-99.97599365 176.7394519 -99.97599365 176.7394519 -101.53759766 177.66918945 C-103.46948115 178.82236501 -105.39896789 179.97956816 -107.32568359 181.14135742 C-108.17727051 181.65029541 -109.02885742 182.1592334 -109.90625 182.68359375 C-110.65197266 183.13275146 -111.39769531 183.58190918 -112.16601562 184.04467773 C-114 185 -114 185 -116 185 C-116 185.66 -116 186.32 -116 187 C-115.34128906 187.23332031 -114.68257813 187.46664062 -114.00390625 187.70703125 C-109.36444572 189.7039902 -105.10990135 192.37059308 -100.79492188 194.98632812 C-100.10849609 195.38658203 -99.42207031 195.78683594 -98.71484375 196.19921875 C-98.09730225 196.56877686 -97.47976074 196.93833496 -96.84350586 197.3190918 C-94.46495723 198.19762075 -93.35852038 197.86070189 -91 197 C-88.37837779 195.6509814 -85.81396734 194.26385544 -83.25 192.8125 C-82.07123291 192.15145264 -82.07123291 192.15145264 -80.86865234 191.47705078 C-73.39521042 187.26553792 -65.99183556 182.9340331 -58.59082031 178.59692383 C-50.75772013 174.01042138 -42.88709069 169.49266028 -35 165 C-25.33012939 159.49062596 -15.69714655 153.92209204 -6.09350586 148.29785156 C2.31597672 143.38074396 10.77035167 138.54467618 19.23651123 133.72607422 C27.27730545 129.14948696 35.28931046 124.53196564 43.20483398 119.74121094 C47.78610974 117 47.78610974 117 50 117 C50 87.96 50 58.92 50 29 C57.20575754 32.60287877 64.18603085 36.12793523 71.0625 40.25 C71.79404297 40.683125 72.52558594 41.11625 73.27929688 41.5625 C76.23484588 43.31794982 79.13855926 45.09237284 82 47 C82.2861598 49.87084495 82.37812186 52.52504289 82.34057617 55.39697266 C82.34101425 56.26533249 82.34145233 57.13369232 82.34190369 58.02836609 C82.33980867 60.90715794 82.3164442 63.78537202 82.29296875 66.6640625 C82.28737533 68.6566028 82.28310403 70.64914722 82.28010559 72.64169312 C82.26863684 77.89269347 82.23915221 83.14344592 82.20599365 88.39434814 C82.17533647 93.74984381 82.16160957 99.10537943 82.14648438 104.4609375 C82.11428445 114.97406741 82.06306362 125.48701311 82 136 C81.4862702 136.28472357 80.9725404 136.56944714 80.44324303 136.86279869 C78.08735162 138.16889949 75.73190542 139.47580121 73.37646484 140.78271484 C72.56841904 141.23053818 71.76037323 141.67836151 70.92784119 142.13975525 C64.77778254 145.55319895 58.68434042 149.05289975 52.625 152.625 C43.78378956 157.81015723 34.90584438 162.92703522 26 168 C17.30581259 172.95348205 8.63496881 177.94369473 0 183 C-9.22800529 188.4035646 -18.4999467 193.72652361 -27.79101562 199.02050781 C-35.88746052 203.63503898 -43.95691952 208.29288963 -52 213 C-53.93349774 214.1264669 -55.86709283 215.25276672 -57.80078125 216.37890625 C-61.74354893 218.67633284 -65.67572255 220.99061576 -69.60128784 223.31723022 C-72.16407187 224.83194132 -74.73398852 226.33425427 -77.30541992 227.83422852 C-78.55036833 228.56401472 -79.79230167 229.29897132 -81.03100586 230.03930664 C-82.75622507 231.06955791 -84.49314308 232.08014157 -86.23046875 233.08984375 C-87.22457764 233.67628662 -88.21868652 234.26272949 -89.24291992 234.86694336 C-92.48710556 236.20018214 -93.72186125 236.14232273 -97 235 C-99.54174805 233.74755859 -99.54174805 233.74755859 -102.26171875 232.1484375 C-103.79602539 231.25415039 -103.79602539 231.25415039 -105.36132812 230.34179688 C-107.0077832 229.36823242 -107.0077832 229.36823242 -108.6875 228.375 C-109.84916922 227.69521082 -111.01128693 227.01618752 -112.17382812 226.33789062 C-114.58817446 224.92841697 -117.00055922 223.51567013 -119.41162109 222.10058594 C-124.92318608 218.86944464 -130.46300973 215.68729817 -136 212.5 C-138.13944776 211.26584139 -140.27876988 210.03146497 -142.41796875 208.796875 C-146.41590908 206.49030144 -150.41433196 204.18456874 -154.4133606 201.87988281 C-156.80426597 200.50193062 -159.19498672 199.12365828 -161.58569336 197.74536133 C-163.26983963 196.77459018 -164.95425231 195.80428126 -166.63867188 194.83398438 C-167.66154297 194.24423828 -168.68441406 193.65449219 -169.73828125 193.046875 C-170.63587158 192.52963867 -171.53346191 192.01240234 -172.45825195 191.47949219 C-173.29702881 190.99125977 -174.13580566 190.50302734 -175 190 C-175.93352295 189.4834082 -176.8670459 188.96681641 -177.82885742 188.43457031 C-178.54533447 187.96116211 -179.26181152 187.48775391 -180 187 C-180 186.34 -180 185.68 -180 185 C-178.40885417 184.08203125 -176.81770833 183.1640625 -175.2265625 182.24609375 C-174.18717529 181.64643799 -173.14778809 181.04678223 -172.0769043 180.42895508 C-169.74506819 179.08368405 -167.41320438 177.73846118 -165.08129883 176.39331055 C-159.12763695 172.95887018 -153.17446122 169.5235954 -147.22265625 166.0859375 C-136.48220128 159.88362421 -125.73343724 153.69690604 -114.96044922 147.55126953 C-104.72988537 141.71105579 -94.53145925 135.81517067 -84.33056641 129.92333984 C-79.96715003 127.40354845 -75.6026668 124.88560896 -71.23803711 122.36791992 C-69.07857542 121.12219562 -66.91923303 119.87626447 -64.76000977 118.63012695 C-59.29517996 115.47640735 -53.82877485 112.32547561 -48.359375 109.1796875 C-46.15616335 107.91160887 -43.95303763 106.64338094 -41.75 105.375 C-40.68458984 104.76197021 -39.61917969 104.14894043 -38.52148438 103.51733398 C-33.17600591 100.434693 -27.84820041 97.32601637 -22.546875 94.16796875 C-21.52754883 93.56098145 -20.50822266 92.95399414 -19.45800781 92.32861328 C-17.52780456 91.17616278 -15.59995149 90.01976421 -13.67480469 88.85888672 C-12.39718262 88.09535889 -12.39718262 88.09535889 -11.09375 87.31640625 C-10.34802734 86.86724854 -9.60230469 86.41809082 -8.83398438 85.95532227 C-7 85 -7 85 -5 85 C-5.02094727 84.03328369 -5.04189453 83.06656738 -5.06347656 82.07055664 C-5.44948358 62.38480855 -5.08071711 42.9732636 -3.0625 23.375 C-2.92539612 22.03974777 -2.92539612 22.03974777 -2.78552246 20.67752075 C-1.19455284 5.42495647 -1.19455284 5.42495647 0 0 Z " fill="#D8AE5C" transform="translate(340,247)"/>
</svg>
